<mxfile host="app.diagrams.net" modified="2020-12-09T11:28:23.982Z" agent="5.0 (Macintosh; Intel Mac OS X 10_15_4) AppleWebKit/537.36 (KHTML, like Gecko) Chrome/87.0.4280.67 Safari/537.36" etag="xLbtODpLGoLRPw5oLYQk" version="13.11.0" type="github">
  <diagram id="PMAWqZdeQKoXJHys85Qx" name="ページ1">
    <mxGraphModel dx="2246" dy="1306" grid="1" gridSize="10" guides="1" tooltips="1" connect="1" arrows="1" fold="1" page="1" pageScale="1" pageWidth="1654" pageHeight="1169" math="0" shadow="0">
      <root>
        <mxCell id="0" />
        <mxCell id="1" parent="0" />
        <mxCell id="6ZfReuR5DKtllZkz7jd5-115" style="edgeStyle=orthogonalEdgeStyle;rounded=0;orthogonalLoop=1;jettySize=auto;html=1;entryX=0.5;entryY=0;entryDx=0;entryDy=0;entryPerimeter=0;fontSize=50;fontColor=#FF8000;" edge="1" parent="1" source="6ZfReuR5DKtllZkz7jd5-35" target="6ZfReuR5DKtllZkz7jd5-111">
          <mxGeometry relative="1" as="geometry" />
        </mxCell>
        <mxCell id="6ZfReuR5DKtllZkz7jd5-35" value="&lt;span style=&quot;box-sizing: border-box ; font-weight: 700 ; font-family: &amp;#34;hiragino kaku gothic pro&amp;#34; , &amp;#34;osaka&amp;#34; , , &amp;#34;meiryo&amp;#34; , &amp;#34;ｍｓ ｐゴシック&amp;#34; , &amp;#34;ms pgothic&amp;#34; , sans-serif ; color: rgb(51 , 51 , 51) ; font-size: 14px&quot;&gt;シングルノード&lt;/span&gt;" style="outlineConnect=0;fontColor=#232F3E;gradientColor=none;fillColor=#3334B9;strokeColor=none;dashed=0;verticalLabelPosition=bottom;verticalAlign=top;align=center;html=1;fontSize=12;fontStyle=0;aspect=fixed;pointerEvents=1;shape=mxgraph.aws4.elasticache_for_redis;" vertex="1" parent="1">
          <mxGeometry x="340" y="140" width="78" height="69" as="geometry" />
        </mxCell>
        <mxCell id="6ZfReuR5DKtllZkz7jd5-79" style="edgeStyle=orthogonalEdgeStyle;rounded=0;orthogonalLoop=1;jettySize=auto;html=1;entryX=0.5;entryY=0.02;entryDx=0;entryDy=0;entryPerimeter=0;fontSize=50;fontColor=#FF8000;" edge="1" parent="1" source="6ZfReuR5DKtllZkz7jd5-36">
          <mxGeometry relative="1" as="geometry">
            <mxPoint x="674.75" y="331.3199999999997" as="targetPoint" />
          </mxGeometry>
        </mxCell>
        <mxCell id="6ZfReuR5DKtllZkz7jd5-36" value="&lt;span style=&quot;box-sizing: border-box ; font-weight: 700 ; font-family: &amp;#34;hiragino kaku gothic pro&amp;#34; , &amp;#34;osaka&amp;#34; , , &amp;#34;meiryo&amp;#34; , &amp;#34;ｍｓ ｐゴシック&amp;#34; , &amp;#34;ms pgothic&amp;#34; , sans-serif ; color: rgb(51 , 51 , 51) ; font-size: 14px&quot;&gt;クラスターモード無効&lt;/span&gt;" style="outlineConnect=0;fontColor=#232F3E;gradientColor=none;fillColor=#3334B9;strokeColor=none;dashed=0;verticalLabelPosition=bottom;verticalAlign=top;align=center;html=1;fontSize=12;fontStyle=0;aspect=fixed;pointerEvents=1;shape=mxgraph.aws4.elasticache_for_redis;" vertex="1" parent="1">
          <mxGeometry x="788" y="160" width="78" height="69" as="geometry" />
        </mxCell>
        <mxCell id="6ZfReuR5DKtllZkz7jd5-86" style="edgeStyle=orthogonalEdgeStyle;rounded=0;orthogonalLoop=1;jettySize=auto;html=1;entryX=0.5;entryY=0.02;entryDx=0;entryDy=0;entryPerimeter=0;fontSize=50;fontColor=#FF8000;" edge="1" parent="1" source="6ZfReuR5DKtllZkz7jd5-37">
          <mxGeometry relative="1" as="geometry">
            <mxPoint x="1227.5" y="301.3199999999997" as="targetPoint" />
          </mxGeometry>
        </mxCell>
        <mxCell id="6ZfReuR5DKtllZkz7jd5-37" value="&lt;span style=&quot;box-sizing: border-box ; font-weight: 700 ; font-family: &amp;#34;hiragino kaku gothic pro&amp;#34; , &amp;#34;osaka&amp;#34; , , &amp;#34;meiryo&amp;#34; , &amp;#34;ｍｓ ｐゴシック&amp;#34; , &amp;#34;ms pgothic&amp;#34; , sans-serif ; color: rgb(51 , 51 , 51) ; font-size: 14px&quot;&gt;クラスターモード有効&lt;/span&gt;" style="outlineConnect=0;fontColor=#232F3E;gradientColor=none;fillColor=#3334B9;strokeColor=none;dashed=0;verticalLabelPosition=bottom;verticalAlign=top;align=center;html=1;fontSize=12;fontStyle=0;aspect=fixed;pointerEvents=1;shape=mxgraph.aws4.elasticache_for_redis;" vertex="1" parent="1">
          <mxGeometry x="1360" y="150" width="78" height="69" as="geometry" />
        </mxCell>
        <mxCell id="6ZfReuR5DKtllZkz7jd5-73" style="edgeStyle=orthogonalEdgeStyle;rounded=0;orthogonalLoop=1;jettySize=auto;html=1;fontSize=50;fontColor=#FF8000;" edge="1" parent="1" source="6ZfReuR5DKtllZkz7jd5-40" target="6ZfReuR5DKtllZkz7jd5-69">
          <mxGeometry relative="1" as="geometry" />
        </mxCell>
        <mxCell id="6ZfReuR5DKtllZkz7jd5-40" value="" style="shadow=0;dashed=0;html=1;strokeColor=none;fillColor=#505050;labelPosition=center;verticalLabelPosition=bottom;verticalAlign=top;outlineConnect=0;align=center;shape=mxgraph.office.databases.database_partition_5;fontSize=50;fontColor=#FF8000;" vertex="1" parent="1">
          <mxGeometry x="130.5" y="423.5" width="57" height="59" as="geometry" />
        </mxCell>
        <mxCell id="6ZfReuR5DKtllZkz7jd5-83" style="edgeStyle=orthogonalEdgeStyle;rounded=0;orthogonalLoop=1;jettySize=auto;html=1;fontSize=50;fontColor=#FF8000;" edge="1" parent="1" source="6ZfReuR5DKtllZkz7jd5-41" target="6ZfReuR5DKtllZkz7jd5-63">
          <mxGeometry relative="1" as="geometry" />
        </mxCell>
        <mxCell id="6ZfReuR5DKtllZkz7jd5-41" value="" style="shape=image;html=1;verticalAlign=top;verticalLabelPosition=bottom;labelBackgroundColor=#ffffff;imageAspect=0;aspect=fixed;image=https://cdn3.iconfinder.com/data/icons/fantasy-and-role-play-game-adventure-quest/512/Crystal_Shard-128.png;strokeWidth=3;fontSize=50;fontColor=#FF8000;" vertex="1" parent="1">
          <mxGeometry x="619.75" y="690" width="110" height="110" as="geometry" />
        </mxCell>
        <mxCell id="6ZfReuR5DKtllZkz7jd5-82" style="edgeStyle=orthogonalEdgeStyle;rounded=0;orthogonalLoop=1;jettySize=auto;html=1;entryX=0.5;entryY=0;entryDx=0;entryDy=0;fontSize=50;fontColor=#FF8000;" edge="1" parent="1" source="6ZfReuR5DKtllZkz7jd5-46" target="6ZfReuR5DKtllZkz7jd5-41">
          <mxGeometry relative="1" as="geometry" />
        </mxCell>
        <mxCell id="6ZfReuR5DKtllZkz7jd5-46" value="" style="strokeWidth=2;html=1;shape=mxgraph.flowchart.database;whiteSpace=wrap;fontSize=50;fontColor=#FF8000;" vertex="1" parent="1">
          <mxGeometry x="644.75" y="510" width="60" height="60" as="geometry" />
        </mxCell>
        <mxCell id="6ZfReuR5DKtllZkz7jd5-81" style="edgeStyle=orthogonalEdgeStyle;rounded=0;orthogonalLoop=1;jettySize=auto;html=1;entryX=0.5;entryY=0;entryDx=0;entryDy=0;entryPerimeter=0;fontSize=50;fontColor=#FF8000;" edge="1" parent="1" target="6ZfReuR5DKtllZkz7jd5-46">
          <mxGeometry relative="1" as="geometry">
            <mxPoint x="674.8571428571431" y="396" as="sourcePoint" />
          </mxGeometry>
        </mxCell>
        <mxCell id="6ZfReuR5DKtllZkz7jd5-49" value="" style="shape=image;html=1;verticalAlign=top;verticalLabelPosition=bottom;labelBackgroundColor=#ffffff;imageAspect=0;aspect=fixed;image=https://cdn3.iconfinder.com/data/icons/fantasy-and-role-play-game-adventure-quest/512/Crystal_Shard-128.png;strokeWidth=3;fontSize=50;fontColor=#FF8000;" vertex="1" parent="1">
          <mxGeometry x="772" y="700" width="110" height="110" as="geometry" />
        </mxCell>
        <mxCell id="6ZfReuR5DKtllZkz7jd5-50" value="" style="strokeWidth=2;html=1;shape=mxgraph.flowchart.database;whiteSpace=wrap;fontSize=50;fontColor=#FF8000;" vertex="1" parent="1">
          <mxGeometry x="800" y="519" width="60" height="60" as="geometry" />
        </mxCell>
        <mxCell id="6ZfReuR5DKtllZkz7jd5-51" value="" style="outlineConnect=0;dashed=0;verticalLabelPosition=bottom;verticalAlign=top;align=center;html=1;shape=mxgraph.aws3.rds_db_instance_read_replica;fillColor=#2E73B8;gradientColor=none;strokeWidth=3;fontSize=50;fontColor=#FF8000;" vertex="1" parent="1">
          <mxGeometry x="800" y="330" width="49.5" height="66" as="geometry" />
        </mxCell>
        <mxCell id="6ZfReuR5DKtllZkz7jd5-104" style="edgeStyle=orthogonalEdgeStyle;rounded=0;orthogonalLoop=1;jettySize=auto;html=1;fontSize=50;fontColor=#FF8000;" edge="1" parent="1" source="6ZfReuR5DKtllZkz7jd5-54" target="6ZfReuR5DKtllZkz7jd5-100">
          <mxGeometry relative="1" as="geometry" />
        </mxCell>
        <mxCell id="6ZfReuR5DKtllZkz7jd5-54" value="" style="shape=image;html=1;verticalAlign=top;verticalLabelPosition=bottom;labelBackgroundColor=#ffffff;imageAspect=0;aspect=fixed;image=https://cdn3.iconfinder.com/data/icons/fantasy-and-role-play-game-adventure-quest/512/Crystal_Shard-128.png;strokeWidth=3;fontSize=50;fontColor=#FF8000;" vertex="1" parent="1">
          <mxGeometry x="930" y="730" width="110" height="110" as="geometry" />
        </mxCell>
        <mxCell id="6ZfReuR5DKtllZkz7jd5-87" style="edgeStyle=orthogonalEdgeStyle;rounded=0;orthogonalLoop=1;jettySize=auto;html=1;fontSize=50;fontColor=#FF8000;" edge="1" parent="1" target="6ZfReuR5DKtllZkz7jd5-57">
          <mxGeometry relative="1" as="geometry">
            <mxPoint x="1227.4285714285716" y="366" as="sourcePoint" />
          </mxGeometry>
        </mxCell>
        <mxCell id="6ZfReuR5DKtllZkz7jd5-103" style="edgeStyle=orthogonalEdgeStyle;rounded=0;orthogonalLoop=1;jettySize=auto;html=1;fontSize=50;fontColor=#FF8000;" edge="1" parent="1" source="6ZfReuR5DKtllZkz7jd5-57" target="6ZfReuR5DKtllZkz7jd5-54">
          <mxGeometry relative="1" as="geometry" />
        </mxCell>
        <mxCell id="6ZfReuR5DKtllZkz7jd5-57" value="最大数80" style="shadow=0;dashed=0;html=1;strokeColor=none;fillColor=#505050;labelPosition=center;verticalLabelPosition=bottom;verticalAlign=top;outlineConnect=0;align=center;shape=mxgraph.office.databases.database_partition_5;fontSize=50;fontColor=#FF8000;" vertex="1" parent="1">
          <mxGeometry x="1195.25" y="541" width="57" height="59" as="geometry" />
        </mxCell>
        <mxCell id="6ZfReuR5DKtllZkz7jd5-58" value="" style="shape=image;html=1;verticalAlign=top;verticalLabelPosition=bottom;labelBackgroundColor=#ffffff;imageAspect=0;aspect=fixed;image=https://cdn3.iconfinder.com/data/icons/fantasy-and-role-play-game-adventure-quest/512/Crystal_Shard-128.png;strokeWidth=3;fontSize=50;fontColor=#FF8000;" vertex="1" parent="1">
          <mxGeometry x="1061.75" y="725" width="110" height="110" as="geometry" />
        </mxCell>
        <mxCell id="6ZfReuR5DKtllZkz7jd5-59" value="" style="shape=image;html=1;verticalAlign=top;verticalLabelPosition=bottom;labelBackgroundColor=#ffffff;imageAspect=0;aspect=fixed;image=https://cdn3.iconfinder.com/data/icons/fantasy-and-role-play-game-adventure-quest/512/Crystal_Shard-128.png;strokeWidth=3;fontSize=50;fontColor=#FF8000;" vertex="1" parent="1">
          <mxGeometry x="1231.75" y="735" width="110" height="110" as="geometry" />
        </mxCell>
        <mxCell id="6ZfReuR5DKtllZkz7jd5-84" style="edgeStyle=orthogonalEdgeStyle;rounded=0;orthogonalLoop=1;jettySize=auto;html=1;fontSize=50;fontColor=#FF8000;" edge="1" parent="1" source="6ZfReuR5DKtllZkz7jd5-63" target="6ZfReuR5DKtllZkz7jd5-65">
          <mxGeometry relative="1" as="geometry" />
        </mxCell>
        <mxCell id="6ZfReuR5DKtllZkz7jd5-85" style="edgeStyle=orthogonalEdgeStyle;rounded=0;orthogonalLoop=1;jettySize=auto;html=1;fontSize=50;fontColor=#FF8000;" edge="1" parent="1" source="6ZfReuR5DKtllZkz7jd5-63" target="6ZfReuR5DKtllZkz7jd5-66">
          <mxGeometry relative="1" as="geometry" />
        </mxCell>
        <mxCell id="6ZfReuR5DKtllZkz7jd5-63" value="" style="pointerEvents=1;shadow=0;dashed=0;html=1;strokeColor=none;fillColor=#505050;labelPosition=center;verticalLabelPosition=bottom;verticalAlign=top;outlineConnect=0;align=center;shape=mxgraph.office.concepts.node_generic;fontSize=50;fontColor=#FF8000;" vertex="1" parent="1">
          <mxGeometry x="651.75" y="870" width="46" height="52" as="geometry" />
        </mxCell>
        <mxCell id="6ZfReuR5DKtllZkz7jd5-65" value="" style="pointerEvents=1;shadow=0;dashed=0;html=1;strokeColor=none;fillColor=#505050;labelPosition=center;verticalLabelPosition=bottom;verticalAlign=top;outlineConnect=0;align=center;shape=mxgraph.office.concepts.node_generic;fontSize=50;fontColor=#FF8000;" vertex="1" parent="1">
          <mxGeometry x="588.88" y="1020" width="46" height="52" as="geometry" />
        </mxCell>
        <mxCell id="6ZfReuR5DKtllZkz7jd5-66" value="" style="pointerEvents=1;shadow=0;dashed=0;html=1;strokeColor=none;fillColor=#505050;labelPosition=center;verticalLabelPosition=bottom;verticalAlign=top;outlineConnect=0;align=center;shape=mxgraph.office.concepts.node_generic;fontSize=50;fontColor=#FF8000;" vertex="1" parent="1">
          <mxGeometry x="714.63" y="1020" width="46" height="52" as="geometry" />
        </mxCell>
        <mxCell id="6ZfReuR5DKtllZkz7jd5-75" style="edgeStyle=orthogonalEdgeStyle;rounded=0;orthogonalLoop=1;jettySize=auto;html=1;fontSize=50;fontColor=#FF8000;" edge="1" parent="1" source="6ZfReuR5DKtllZkz7jd5-69" target="6ZfReuR5DKtllZkz7jd5-70">
          <mxGeometry relative="1" as="geometry" />
        </mxCell>
        <mxCell id="6ZfReuR5DKtllZkz7jd5-69" value="" style="shape=image;html=1;verticalAlign=top;verticalLabelPosition=bottom;labelBackgroundColor=#ffffff;imageAspect=0;aspect=fixed;image=https://cdn3.iconfinder.com/data/icons/fantasy-and-role-play-game-adventure-quest/512/Crystal_Shard-128.png;strokeWidth=3;fontSize=50;fontColor=#FF8000;" vertex="1" parent="1">
          <mxGeometry x="104" y="600" width="110" height="110" as="geometry" />
        </mxCell>
        <mxCell id="6ZfReuR5DKtllZkz7jd5-77" style="edgeStyle=orthogonalEdgeStyle;rounded=0;orthogonalLoop=1;jettySize=auto;html=1;fontSize=50;fontColor=#FF8000;" edge="1" parent="1" source="6ZfReuR5DKtllZkz7jd5-70" target="6ZfReuR5DKtllZkz7jd5-71">
          <mxGeometry relative="1" as="geometry" />
        </mxCell>
        <mxCell id="6ZfReuR5DKtllZkz7jd5-78" style="edgeStyle=orthogonalEdgeStyle;rounded=0;orthogonalLoop=1;jettySize=auto;html=1;fontSize=50;fontColor=#FF8000;" edge="1" parent="1" source="6ZfReuR5DKtllZkz7jd5-70" target="6ZfReuR5DKtllZkz7jd5-72">
          <mxGeometry relative="1" as="geometry" />
        </mxCell>
        <mxCell id="6ZfReuR5DKtllZkz7jd5-70" value="primary" style="pointerEvents=1;shadow=0;dashed=0;html=1;strokeColor=none;fillColor=#505050;labelPosition=center;verticalLabelPosition=bottom;verticalAlign=top;outlineConnect=0;align=center;shape=mxgraph.office.concepts.node_generic;fontSize=50;fontColor=#FF8000;" vertex="1" parent="1">
          <mxGeometry x="136" y="780" width="46" height="52" as="geometry" />
        </mxCell>
        <mxCell id="6ZfReuR5DKtllZkz7jd5-71" value="replica" style="pointerEvents=1;shadow=0;dashed=0;html=1;strokeColor=none;fillColor=#505050;labelPosition=center;verticalLabelPosition=bottom;verticalAlign=top;outlineConnect=0;align=center;shape=mxgraph.office.concepts.node_generic;fontSize=50;fontColor=#FF8000;" vertex="1" parent="1">
          <mxGeometry x="73.99999999999999" y="1000" width="46" height="52" as="geometry" />
        </mxCell>
        <mxCell id="6ZfReuR5DKtllZkz7jd5-72" value="replica" style="pointerEvents=1;shadow=0;dashed=0;html=1;strokeColor=none;fillColor=#505050;labelPosition=center;verticalLabelPosition=bottom;verticalAlign=top;outlineConnect=0;align=center;shape=mxgraph.office.concepts.node_generic;fontSize=50;fontColor=#FF8000;" vertex="1" parent="1">
          <mxGeometry x="240" y="1000" width="46" height="52" as="geometry" />
        </mxCell>
        <mxCell id="6ZfReuR5DKtllZkz7jd5-98" style="edgeStyle=orthogonalEdgeStyle;rounded=0;orthogonalLoop=1;jettySize=auto;html=1;fontSize=50;fontColor=#FF8000;" edge="1" parent="1" source="6ZfReuR5DKtllZkz7jd5-100" target="6ZfReuR5DKtllZkz7jd5-101">
          <mxGeometry relative="1" as="geometry" />
        </mxCell>
        <mxCell id="6ZfReuR5DKtllZkz7jd5-99" style="edgeStyle=orthogonalEdgeStyle;rounded=0;orthogonalLoop=1;jettySize=auto;html=1;fontSize=50;fontColor=#FF8000;" edge="1" parent="1" source="6ZfReuR5DKtllZkz7jd5-100" target="6ZfReuR5DKtllZkz7jd5-102">
          <mxGeometry relative="1" as="geometry">
            <mxPoint x="976" y="970" as="sourcePoint" />
          </mxGeometry>
        </mxCell>
        <mxCell id="6ZfReuR5DKtllZkz7jd5-101" value="" style="pointerEvents=1;shadow=0;dashed=0;html=1;strokeColor=none;fillColor=#505050;labelPosition=center;verticalLabelPosition=bottom;verticalAlign=top;outlineConnect=0;align=center;shape=mxgraph.office.concepts.node_generic;fontSize=50;fontColor=#FF8000;" vertex="1" parent="1">
          <mxGeometry x="890" y="1092" width="46" height="58" as="geometry" />
        </mxCell>
        <mxCell id="6ZfReuR5DKtllZkz7jd5-102" value="" style="pointerEvents=1;shadow=0;dashed=0;html=1;strokeColor=none;fillColor=#505050;labelPosition=center;verticalLabelPosition=bottom;verticalAlign=top;outlineConnect=0;align=center;shape=mxgraph.office.concepts.node_generic;fontSize=50;fontColor=#FF8000;" vertex="1" parent="1">
          <mxGeometry x="1015.75" y="1095" width="46" height="52" as="geometry" />
        </mxCell>
        <mxCell id="6ZfReuR5DKtllZkz7jd5-105" value="" style="shadow=0;dashed=0;html=1;strokeColor=none;fillColor=#505050;labelPosition=center;verticalLabelPosition=bottom;verticalAlign=top;outlineConnect=0;align=center;shape=mxgraph.office.databases.database_partition_5;fontSize=50;fontColor=#FF8000;" vertex="1" parent="1">
          <mxGeometry x="1350" y="541" width="57" height="59" as="geometry" />
        </mxCell>
        <mxCell id="6ZfReuR5DKtllZkz7jd5-106" value="" style="outlineConnect=0;dashed=0;verticalLabelPosition=bottom;verticalAlign=top;align=center;html=1;shape=mxgraph.aws3.rds_db_instance_read_replica;fillColor=#2E73B8;gradientColor=none;strokeWidth=3;fontSize=50;fontColor=#FF8000;" vertex="1" parent="1">
          <mxGeometry x="1350" y="290" width="49.5" height="66" as="geometry" />
        </mxCell>
        <mxCell id="6ZfReuR5DKtllZkz7jd5-107" value="" style="rounded=1;whiteSpace=wrap;html=1;strokeWidth=3;fontSize=50;fontColor=#FF8000;fillColor=none;" vertex="1" parent="1">
          <mxGeometry x="561.43" y="275.5" width="400" height="207.5" as="geometry" />
        </mxCell>
        <mxCell id="6ZfReuR5DKtllZkz7jd5-108" value="" style="rounded=1;whiteSpace=wrap;html=1;strokeWidth=3;fontSize=50;fontColor=#FF8000;fillColor=none;" vertex="1" parent="1">
          <mxGeometry x="1090" y="239" width="490" height="200" as="geometry" />
        </mxCell>
        <mxCell id="6ZfReuR5DKtllZkz7jd5-100" value="" style="pointerEvents=1;shadow=0;dashed=0;html=1;strokeColor=none;fillColor=#505050;labelPosition=center;verticalLabelPosition=bottom;verticalAlign=top;outlineConnect=0;align=center;shape=mxgraph.office.concepts.node_generic;fontSize=50;fontColor=#FF8000;" vertex="1" parent="1">
          <mxGeometry x="961.43" y="922" width="47.13" height="48" as="geometry" />
        </mxCell>
        <mxCell id="6ZfReuR5DKtllZkz7jd5-109" style="edgeStyle=orthogonalEdgeStyle;rounded=0;orthogonalLoop=1;jettySize=auto;html=1;fontSize=50;fontColor=#FF8000;" edge="1" parent="1" target="6ZfReuR5DKtllZkz7jd5-100">
          <mxGeometry relative="1" as="geometry">
            <mxPoint x="975.9999999999995" y="970" as="sourcePoint" />
            <mxPoint x="1038.8571428571431" y="1095" as="targetPoint" />
          </mxGeometry>
        </mxCell>
        <mxCell id="6ZfReuR5DKtllZkz7jd5-116" style="edgeStyle=orthogonalEdgeStyle;rounded=0;orthogonalLoop=1;jettySize=auto;html=1;fontSize=50;fontColor=#FF8000;" edge="1" parent="1" source="6ZfReuR5DKtllZkz7jd5-111">
          <mxGeometry relative="1" as="geometry">
            <mxPoint x="160" y="419.9999999999998" as="targetPoint" />
          </mxGeometry>
        </mxCell>
        <mxCell id="6ZfReuR5DKtllZkz7jd5-117" style="edgeStyle=orthogonalEdgeStyle;rounded=0;orthogonalLoop=1;jettySize=auto;html=1;fontSize=50;fontColor=#FF8000;" edge="1" parent="1" source="6ZfReuR5DKtllZkz7jd5-111" target="6ZfReuR5DKtllZkz7jd5-114">
          <mxGeometry relative="1" as="geometry" />
        </mxCell>
        <mxCell id="6ZfReuR5DKtllZkz7jd5-111" value="" style="outlineConnect=0;dashed=0;verticalLabelPosition=bottom;verticalAlign=top;align=center;html=1;shape=mxgraph.aws3.sql_master;fillColor=#2E73B8;gradientColor=none;strokeWidth=3;fontSize=50;fontColor=#FF8000;" vertex="1" parent="1">
          <mxGeometry x="187.5" y="275.5" width="60" height="64.5" as="geometry" />
        </mxCell>
        <mxCell id="6ZfReuR5DKtllZkz7jd5-112" value="" style="outlineConnect=0;dashed=0;verticalLabelPosition=bottom;verticalAlign=top;align=center;html=1;shape=mxgraph.aws3.sql_master;fillColor=#2E73B8;gradientColor=none;strokeWidth=3;fontSize=50;fontColor=#FF8000;" vertex="1" parent="1">
          <mxGeometry x="644.75" y="340" width="60" height="64.5" as="geometry" />
        </mxCell>
        <mxCell id="6ZfReuR5DKtllZkz7jd5-113" value="" style="outlineConnect=0;dashed=0;verticalLabelPosition=bottom;verticalAlign=top;align=center;html=1;shape=mxgraph.aws3.sql_master;fillColor=#2E73B8;gradientColor=none;strokeWidth=3;fontSize=50;fontColor=#FF8000;" vertex="1" parent="1">
          <mxGeometry x="1210" y="310" width="60" height="64.5" as="geometry" />
        </mxCell>
        <mxCell id="6ZfReuR5DKtllZkz7jd5-114" value="" style="shadow=0;dashed=0;html=1;strokeColor=none;fillColor=#505050;labelPosition=center;verticalLabelPosition=bottom;verticalAlign=top;outlineConnect=0;align=center;shape=mxgraph.office.databases.database_partition_5;fontSize=50;fontColor=#FF8000;" vertex="1" parent="1">
          <mxGeometry x="234.5" y="433.5" width="57" height="59" as="geometry" />
        </mxCell>
      </root>
    </mxGraphModel>
  </diagram>
</mxfile>
